<?xml version="1.0" encoding="utf-8"?>

<!DOCTYPE svg PUBLIC "-//W3C//DTD SVG 1.1//EN" "http://www.w3.org/Graphics/SVG/1.1/DTD/svg11.dtd">
<svg version="1.1"
	 id="svg2" xmlns:svg="http://www.w3.org/2000/svg" xmlns:cc="http://creativecommons.org/ns#" xmlns:dc="http://purl.org/dc/elements/1.1/" xmlns:rdf="http://www.w3.org/1999/02/22-rdf-syntax-ns#"
	 xmlns="http://www.w3.org/2000/svg" xmlns:xlink="http://www.w3.org/1999/xlink" x="0px" y="0px" width="318.529px"
	 height="429.64px" viewBox="216.833 141.206 318.529 429.64" enable-background="new 216.833 141.206 318.529 429.64"
	 xml:space="preserve">
<g id="g10" transform="matrix(1.3333333,0,0,-1.3333333,0,754.66667)">
	<path id="path12" fill="#03264C" d="M399.208,460.096H162.625V228.607h236.583V460.096z"/>
	<path id="path14" fill="#FFFFFF" d="M175.59,241.568h210.652v205.563H175.59V241.568z"/>
	<g id="g16">
		<g>
			<g id="g18">
				<g id="g24" transform="translate(219.1108,438.8008)">
					<path id="path26" fill="#BF1E2D" d="M0,0c-15.403-0.188-27.768-12.554-27.783-27.779C-27.768-43.065-15.403-55.431,0-55.559
						h120.372c15.303,0.128,27.669,12.494,27.779,27.78C148.042-12.554,135.676-0.188,120.372,0H0z"/>
				</g>
				<g id="g28" transform="translate(330.2217,312.4053)">
					<path id="path30" fill="#03264C" d="M0.001,0c15.4-0.049,27.768,12.437,27.781,27.779
						C27.768,42.948,15.401,55.314,0.001,55.096h-111.112c-15.403,0.218-27.768-12.148-27.783-27.317v-62.966
						c0.015-15.07,12.38-27.437,27.783-27.316c15.109-0.12,27.475,12.246,27.313,27.316V0H0.001z"/>
				</g>
				<g id="g32" transform="translate(264.0186,148.9727)">
					<path id="path34" fill="#03264C" d="M0,0c-0.14-6.117-5.03-11.008-11.111-11.106C-17.079-11.008-21.97-6.117-21.759,0v55.1
						c-0.211,6.05,4.68,10.941,10.648,11.106C-5.03,66.041-0.14,61.15,0,55.1V0z"/>
				</g>
				<g id="g36" transform="translate(176.9771,192.957)">
					<path id="path38" fill="#BF1E2D" d="M0,0c-5.995-0.016-10.885,4.875-11.111,11.115C-10.885,16.925-5.995,21.815,0,21.764
						h47.224c5.851,0.051,10.742-4.838,10.648-10.648C57.966,4.875,53.075-0.016,47.224,0H0z"/>
				</g>
				<g id="g40" transform="translate(220.9609,164.7148)">
					<path id="path42" fill="#03264C" d="M0,0c5.957,0.015,10.847,4.904,10.648,11.114C10.847,16.955,5.957,21.846,0,21.762h-43.521
						c-6.216,0.083-11.107-4.808-11.111-10.648v-26.856c0.004-6.117,4.895-11.008,11.111-11.106
						c5.833,0.098,10.723,4.989,10.648,11.106V0H0z"/>
				</g>
				<g id="g44" transform="translate(383.9258,137.8662)">
					<path id="path46" fill="#03264C" d="M0.001,0C9.82,0.012,17.61,7.92,17.596,17.591c0.013,3.533-1.085,6.883-2.782,9.724
						L-13.42,73.145c-2.064,2.984-5.433,4.966-9.262,5.093c-3.97-0.127-7.437-2.237-9.259-5.552l-30.557-49.08h-28.242v42.599
						c0.111,5.81-4.778,10.699-10.648,10.648c-6.179,0.051-11.069-4.838-11.111-10.648v-55.1
						c0.042-6.119,4.932-11.008,11.111-11.106h39.816c5.121,0.038,10.059,2.813,13.888,8.333l25.002,40.737l16.668-27.316h-23.615
						c-5.84,0.174-10.73-4.717-10.648-10.648C-40.359,4.988-35.469,0.098-29.629,0H0.001z"/>
				</g>
				<g id="g112" transform="translate(389.8633,199.9766)">
					<path id="path114" fill="#03264C" d="M0,0c4.036,0,7.295,3.281,7.295,7.332c0,4.014-3.259,7.291-7.295,7.291
						c-4.046,0-7.329-3.277-7.329-7.291C-7.328,3.282-4.046,0,0,0 M0,0.966c-3.563,0-6.171,2.779-6.171,6.366
						c0,3.551,2.609,6.327,6.171,6.327c3.554,0,6.139-2.776,6.139-6.327C6.139,3.745,3.554,0.966,0,0.966 M1.179,7.004
						c1.447,0.038,2.566,0.637,2.566,2.238c0,1.349-0.734,2.158-2.893,2.158h-3.568V3.244h1.002v3.76h1.831l2.335-3.76h1.195
						L1.179,7.004z M-1.714,7.796v2.893h2.332c1.006,0,2.046-0.155,2.046-1.428c0-1.657-1.699-1.465-2.852-1.465H-1.714z"/>
				</g>
			</g>
		</g>
	</g>
</g>
</svg>
